<?xml version="1.0" encoding="UTF-8" standalone="no"?>
<!DOCTYPE svg PUBLIC "-//W3C//DTD SVG 1.1//EN" "http://www.w3.org/Graphics/SVG/1.1/DTD/svg11.dtd">
<svg version="1.1" xmlns="http://www.w3.org/2000/svg" xmlns:xlink="http://www.w3.org/1999/xlink" preserveAspectRatio="xMidYMid meet" viewBox="303.8066098675596 276.93896997142843 23.999999999999943 32.66999999999996" width="20" height="28.67"><defs><path d="M308.56 289.23C307.53 290.27 306.73 291.37 306.13 292.48C307.01 292.19 307.97 291.96 308.81 291.97C312.67 292.05 313.52 295.8 317.16 295.69C320.29 295.7 321.15 293.74 321.44 293.12C321.66 293.98 320.98 297.62 317.29 297.93C313.37 298.26 311.5 295.01 308.55 295.01C306.6 295.01 305.6 296.02 304.83 296.88C304.76 297.86 304.85 298.82 305.07 299.73C305.9 298.85 306.97 298.03 308.14 298.02C311.35 297.99 312.64 300.37 316.52 300.39C320.77 300.41 322.08 296.98 322.51 296.12C322.73 297.62 321.66 302.76 317.25 303.22C313.09 303.67 311.81 301.69 308.81 301.69C307.78 301.69 307.1 302.54 306.69 303.04C308.4 305.19 311.19 306.61 314.81 306.61C324.44 306.61 328.29 296.55 321.05 289.23C317.66 285.8 315.66 282.85 314.81 277.94C313.95 282.85 311.95 285.8 308.56 289.23ZM319.77 290.88C319.77 290.88 319.77 290.88 319.77 290.88C319.77 292.29 318.63 293.43 317.22 293.43C315.81 293.43 314.66 292.29 314.66 290.88C314.66 289.47 315.81 288.32 317.22 288.32C318.63 288.32 319.77 289.47 319.77 290.88Z" id="b1SW9Xk7VA"></path></defs><g><g><use xlink:href="#b1SW9Xk7VA" opacity="1" fill="#489fe9" fill-opacity="0.6"></use><g><use xlink:href="#b1SW9Xk7VA" opacity="1" fill-opacity="0" stroke="#000000" stroke-width="0.09" stroke-opacity="0"></use></g></g></g></svg>