<?xml version="1.0" standalone="yes"?>

<svg version="1.1" viewBox="0.0 0.0 957.50656167979 808.8320209973754" fill="none" stroke="none" stroke-linecap="square" stroke-miterlimit="10" xmlns="http://www.w3.org/2000/svg" xmlns:xlink="http://www.w3.org/1999/xlink"><clipPath id="p.0"><path d="m0 0l957.5066 0l0 808.83203l-957.5066 0l0 -808.83203z" clip-rule="nonzero"></path></clipPath><g clip-path="url(#p.0)"><path fill="#000000" fill-opacity="0.0" d="m0 0l957.5066 0l0 808.83203l-957.5066 0z" fill-rule="evenodd"></path><path fill="#000000" fill-opacity="0.0" d="m106.35433 28.653376l760.378 0l0 69.385826l-760.378 0z" fill-rule="evenodd"></path><path fill="#0000ff" d="m257.10428 74.18087q-2.359375 0 -4.390625 -0.578125q-2.03125 -0.578125 -3.4375 -1.375l-1.25 1.265625l-1.53125 0l-0.234375 -9.265625l1.546875 0q0.53125 1.3125 1.34375 2.78125q0.8125 1.46875 1.875 2.625q1.109375 1.203125 2.46875 1.96875q1.359375 0.75 3.1875 0.75q2.453125 0 3.765625 -1.203125q1.3125 -1.203125 1.3125 -3.015625q0 -1.5 -1.109375 -2.515625q-1.109375 -1.03125 -3.4375 -1.7656212q-1.515625 -0.5 -2.796875 -0.90625q-1.265625 -0.421875 -2.390625 -0.859375q-2.578125 -1.03125 -3.84375 -2.9375q-1.25 -1.921875 -1.25 -4.28125q0 -1.5 0.640625 -2.875q0.65625 -1.390625 1.90625 -2.5q1.1875 -1.015625 3.046875 -1.671875q1.859375 -0.65625 4.046875 -0.65625q2.140625 0 4.0 0.59375q1.859375 0.578125 2.921875 1.1875l1.109375 -1.09375l1.5625 0l0.140625 8.75l-1.546875 0q-0.546875 -1.40625 -1.28125 -2.875q-0.71875 -1.484375 -1.53125 -2.453125q-0.890625 -1.046875 -2.046875 -1.671875q-1.15625 -0.625 -2.703125 -0.625q-1.953125 0 -3.203125 1.109375q-1.234375 1.09375 -1.234375 2.71875q0 1.53125 1.078125 2.515625q1.078125 0.96875 3.359375 1.71875q1.328125 0.453125 2.71875 0.90625q1.390625 0.4375 2.484375 0.859375q2.609375 1.015625 3.96875 2.796875q1.375 1.765625 1.375 4.406246q0 1.671875 -0.78125 3.234375q-0.78125 1.546875 -2.09375 2.5625q-1.453125 1.140625 -3.34375 1.75q-1.890625 0.625 -4.421875 0.625zm31.723206 -16.484371q1.328125 1.25 2.03125 2.984375q0.703125 1.734375 0.703125 3.7656212q0 2.0 -0.703125 3.78125q-0.6875 1.78125 -2.015625 3.046875q-1.4375 1.34375 -3.421875 2.078125q-1.96875 0.71875 -4.515625 0.71875q-2.203125 0 -4.0625 -0.625q-1.84375 -0.640625 -3.265625 -1.90625q-1.375 -1.203125 -2.171875 -2.984375q-0.796875 -1.78125 -0.796875 -3.984375q0 -2.1718712 0.6875 -3.8593712q0.703125 -1.6875 2.09375 -3.015625q1.34375 -1.265625 3.296875 -1.953125q1.96875 -0.703125 4.390625 -0.703125q2.515625 0 4.4375 0.703125q1.9375 0.6875 3.3125 1.953125zm-4.625 12.531246q0.390625 -1.015625 0.578125 -2.453125q0.1875 -1.453125 0.1875 -3.375q0 -1.2656212 -0.1875 -2.8906212q-0.171875 -1.625 -0.53125 -2.5625q-0.4375 -1.140625 -1.203125 -1.78125q-0.765625 -0.65625 -1.9375 -0.65625q-1.28125 0 -2.046875 0.703125q-0.765625 0.703125 -1.1875 1.828125q-0.375 1.03125 -0.53125 2.421875q-0.140625 1.375 -0.140625 2.8749962q0 1.96875 0.125 3.265625q0.125 1.28125 0.625 2.578125q0.40625 1.125 1.1875 1.78125q0.78125 0.640625 1.96875 0.640625q1.078125 0 1.859375 -0.59375q0.78125 -0.609375 1.234375 -1.78125zm20.902924 3.265625l-11.328125 0l0 -1.3125q0.46875 -0.046875 0.90625 -0.09375q0.453125 -0.0625 0.796875 -0.1875q0.578125 -0.21875 0.78125 -0.625q0.21875 -0.40625 0.21875 -1.0625l0 -20.031246q0 -0.6875 -0.28125 -1.265625q-0.28125 -0.59375 -0.75 -0.890625q-0.359375 -0.234375 -1.09375 -0.453125q-0.734375 -0.21875 -1.296875 -0.25l0 -1.328125l9.09375 -0.46875l0.265625 0.296875l0 24.156246q0 0.65625 0.234375 1.078125q0.234375 0.40625 0.765625 0.65625q0.359375 0.15625 0.75 0.28125q0.40625 0.125 0.9375 0.1875l0 1.3125zm25.427917 -0.375l-8.625 0.515625l-0.265625 -0.25l0 -2.359375l-0.109375 0q-0.609375 0.546875 -1.203125 1.09375q-0.578125 0.53125 -1.390625 0.953125q-0.921875 0.5 -1.75 0.734375q-0.828125 0.234375 -2.390625 0.234375q-2.734375 0 -4.1875 -1.640625q-1.453125 -1.65625 -1.453125 -4.65625l0 -8.124996q0 -0.703125 -0.28125 -1.140625q-0.265625 -0.453125 -0.703125 -0.796875q-0.375 -0.265625 -0.953125 -0.375q-0.578125 -0.125 -1.046875 -0.15625l0 -1.328125l8.765625 -0.46875l0.203125 0.265625l0 12.015621q0 1.859375 0.703125 2.75q0.71875 0.890625 1.96875 0.890625q1.28125 0 2.296875 -0.671875q1.03125 -0.671875 1.5 -1.421875l0 -9.749996q0 -0.609375 -0.234375 -1.09375q-0.234375 -0.484375 -0.6875 -0.796875q-0.328125 -0.21875 -0.9375 -0.28125q-0.59375 -0.078125 -1.234375 -0.109375l0 -1.328125l8.765625 -0.46875l0.265625 0.265625l0 13.953121q0 0.640625 0.25 1.078125q0.265625 0.4375 0.75 0.75q0.34375 0.21875 0.890625 0.296875q0.546875 0.078125 1.09375 0.09375l0 1.328125zm15.12146 -0.453125q-1.15625 0.5 -2.46875 0.90625q-1.3125 0.40625 -3.21875 0.40625q-2.8125 0 -4.1875 -1.375q-1.359375 -1.375 -1.359375 -3.921875l0 -11.093746l-3.25 0l0 -1.9375l3.328125 0l0 -5.484375l5.875 0l0 5.484375l5.046875 0l0 1.9375l-5.015625 0l0 9.906246q0 2.109375 0.578125 3.0q0.59375 0.890625 2.109375 0.890625q0.484375 0 1.34375 -0.078125q0.875 -0.078125 1.21875 -0.15625l0 1.515625zm12.820862 0.828125l-11.421875 0l0 -1.3125q0.46875 -0.046875 0.921875 -0.09375q0.453125 -0.0625 0.78125 -0.1875q0.578125 -0.21875 0.8125 -0.625q0.234375 -0.40625 0.234375 -1.0625l0 -10.515621q0 -0.640625 -0.296875 -1.109375q-0.28125 -0.484375 -0.71875 -0.78125q-0.328125 -0.21875 -0.984375 -0.40625q-0.65625 -0.203125 -1.203125 -0.25l0 -1.328125l8.859375 -0.46875l0.265625 0.265625l0 14.359371q0 0.625 0.265625 1.078125q0.28125 0.4375 0.78125 0.65625q0.359375 0.15625 0.796875 0.28125q0.4375 0.125 0.90625 0.1875l0 1.3125zm-2.640625 -24.640621q0 1.375 -1.0625 2.34375q-1.046875 0.953125 -2.5 0.953125q-1.453125 0 -2.515625 -0.953125q-1.0625 -0.96875 -1.0625 -2.34375q0 -1.375 1.0625 -2.34375q1.0625 -0.984375 2.515625 -0.984375q1.46875 0 2.515625 0.984375q1.046875 0.96875 1.046875 2.34375zm22.86795 8.84375q1.328125 1.25 2.03125 2.984375q0.703125 1.734375 0.703125 3.7656212q0 2.0 -0.703125 3.78125q-0.6875 1.78125 -2.015625 3.046875q-1.4375 1.34375 -3.421875 2.078125q-1.96875 0.71875 -4.515625 0.71875q-2.203125 0 -4.0625 -0.625q-1.84375 -0.640625 -3.265625 -1.90625q-1.375 -1.203125 -2.171875 -2.984375q-0.796875 -1.78125 -0.796875 -3.984375q0 -2.1718712 0.6875 -3.8593712q0.703125 -1.6875 2.09375 -3.015625q1.34375 -1.265625 3.296875 -1.953125q1.96875 -0.703125 4.390625 -0.703125q2.515625 0 4.4375 0.703125q1.9375 0.6875 3.3125 1.953125zm-4.625 12.531246q0.390625 -1.015625 0.578125 -2.453125q0.1875 -1.453125 0.1875 -3.375q0 -1.2656212 -0.1875 -2.8906212q-0.171875 -1.625 -0.53125 -2.5625q-0.4375 -1.140625 -1.203125 -1.78125q-0.765625 -0.65625 -1.9375 -0.65625q-1.28125 0 -2.046875 0.703125q-0.765625 0.703125 -1.1875 1.828125q-0.375 1.03125 -0.53125 2.421875q-0.140625 1.375 -0.140625 2.8749962q0 1.96875 0.125 3.265625q0.125 1.28125 0.625 2.578125q0.40625 1.125 1.1875 1.78125q0.78125 0.640625 1.96875 0.640625q1.078125 0 1.859375 -0.59375q0.78125 -0.609375 1.234375 -1.78125zm33.746704 3.265625l-10.875 0l0 -1.3125q0.34375 -0.046875 0.828125 -0.09375q0.5 -0.0625 0.75 -0.1875q0.375 -0.1875 0.53125 -0.5625q0.171875 -0.390625 0.171875 -1.125l0 -8.468746q0 -1.84375 -0.6875 -2.765625q-0.671875 -0.9375 -1.984375 -0.9375q-0.71875 0 -1.34375 0.21875q-0.625 0.21875 -1.21875 0.640625q-0.53125 0.359375 -0.84375 0.734375q-0.3125 0.375 -0.53125 0.671875l0 9.703121q0 0.625 0.171875 1.0625q0.1875 0.421875 0.59375 0.640625q0.296875 0.15625 0.71875 0.28125q0.4375 0.125 0.859375 0.1875l0 1.3125l-10.984375 0l0 -1.3125q0.453125 -0.046875 0.90625 -0.109375q0.46875 -0.0625 0.796875 -0.171875q0.578125 -0.1875 0.796875 -0.609375q0.21875 -0.421875 0.21875 -1.078125l0 -10.515621q0 -0.5625 -0.296875 -1.109375q-0.28125 -0.546875 -0.765625 -0.890625q-0.3125 -0.203125 -0.8125 -0.34375q-0.5 -0.15625 -1.09375 -0.203125l0 -1.328125l8.609375 -0.46875l0.28125 0.265625l0 2.625l0.0625 0q0.515625 -0.453125 1.234375 -1.078125q0.71875 -0.640625 1.34375 -1.03125q0.65625 -0.4375 1.734375 -0.734375q1.09375 -0.3125 2.328125 -0.3125q2.9375 0 4.40625 1.671875q1.484375 1.671875 1.484375 4.4375l0 8.843746q0 0.671875 0.1875 1.078125q0.203125 0.390625 0.75 0.625q0.28125 0.125 0.703125 0.25q0.4375 0.125 0.96875 0.1875l0 1.3125zm24.825806 -0.828125q-1.15625 0.5 -2.46875 0.90625q-1.3125 0.40625 -3.21875 0.40625q-2.8125 0 -4.1875 -1.375q-1.359375 -1.375 -1.359375 -3.921875l0 -11.093746l-3.25 0l0 -1.9375l3.328125 0l0 -5.484375l5.875 0l0 5.484375l5.046875 0l0 1.9375l-5.015625 0l0 9.906246q0 2.109375 0.578125 3.0q0.59375 0.890625 2.109375 0.890625q0.484375 0 1.34375 -0.078125q0.875 -0.078125 1.21875 -0.15625l0 1.515625zm19.852112 -14.968746q1.328125 1.25 2.03125 2.984375q0.703125 1.734375 0.703125 3.7656212q0 2.0 -0.703125 3.78125q-0.6875 1.78125 -2.015625 3.046875q-1.4375 1.34375 -3.421875 2.078125q-1.96875 0.71875 -4.515625 0.71875q-2.203125 0 -4.0625 -0.625q-1.84375 -0.640625 -3.265625 -1.90625q-1.375 -1.203125 -2.171875 -2.984375q-0.796875 -1.78125 -0.796875 -3.984375q0 -2.1718712 0.6875 -3.8593712q0.703125 -1.6875 2.09375 -3.015625q1.34375 -1.265625 3.296875 -1.953125q1.96875 -0.703125 4.390625 -0.703125q2.515625 0 4.4375 0.703125q1.9375 0.6875 3.3125 1.953125zm-4.625 12.531246q0.390625 -1.015625 0.578125 -2.453125q0.1875 -1.453125 0.1875 -3.375q0 -1.2656212 -0.1875 -2.8906212q-0.171875 -1.625 -0.53125 -2.5625q-0.4375 -1.140625 -1.203125 -1.78125q-0.765625 -0.65625 -1.9375 -0.65625q-1.28125 0 -2.046875 0.703125q-0.765625 0.703125 -1.1875 1.828125q-0.375 1.03125 -0.53125 2.421875q-0.140625 1.375 -0.140625 2.8749962q0 1.96875 0.125 3.265625q0.125 1.28125 0.625 2.578125q0.40625 1.125 1.1875 1.78125q0.78125 0.640625 1.96875 0.640625q1.078125 0 1.859375 -0.59375q0.78125 -0.609375 1.234375 -1.78125zm60.693268 -20.921871q-0.546875 0.046875 -1.109375 0.25q-0.5625 0.1875 -1.109375 0.46875q-0.828125 0.46875 -1.1875 1.03125q-0.34375 0.5625 -0.640625 1.359375q-0.984375 2.734375 -3.0625 8.796875q-2.0625 6.046871 -4.296875 12.578121l-3.640625 0l-6.765625 -19.062496l-6.109375 19.062496l-3.640625 0q-3.015625 -8.78125 -4.625 -13.515621q-1.59375 -4.75 -2.703125 -7.96875q-0.34375 -0.984375 -0.78125 -1.421875q-0.421875 -0.4375 -1.109375 -0.890625q-0.5 -0.328125 -1.046875 -0.484375q-0.546875 -0.15625 -1.265625 -0.25l0 -1.40625l13.671875 0l0 1.375q-1.21875 0.140625 -1.8125 0.28125q-0.59375 0.140625 -0.9375 0.28125q-0.328125 0.140625 -0.40625 0.3125q-0.0625 0.15625 -0.0625 0.28125q0 0.25 0.0625 0.484375q0.0625 0.234375 0.140625 0.546875q0.4375 1.40625 1.75 5.34375q1.3125 3.9375 3.25 9.781246l5.84375 -18.687496l3.828125 0l6.765625 19.265621q1.5 -4.640621 2.390625 -7.578121q0.90625 -2.953125 1.515625 -5.046875q0.359375 -1.28125 0.578125 -2.140625q0.21875 -0.875 0.21875 -1.515625q0 -0.375 -0.359375 -0.640625q-0.34375 -0.28125 -0.9375 -0.484375q-0.515625 -0.15625 -1.328125 -0.25q-0.796875 -0.109375 -1.390625 -0.15625l0 -1.453125l10.3125 0l0 1.453125zm21.392517 23.812496q-0.796875 0.34375 -1.890625 0.625q-1.078125 0.296875 -2.28125 0.296875q-2.234375 0 -3.28125 -0.65625q-1.046875 -0.671875 -1.421875 -1.890625l-0.109375 0q-0.609375 0.609375 -1.1875 1.046875q-0.5625 0.421875 -1.21875 0.734375q-0.84375 0.40625 -1.640625 0.59375q-0.78125 0.1875 -2.1875 0.1875q-2.09375 0 -3.5780945 -1.234375q-1.484375 -1.25 -1.484375 -3.28125q0 -1.171875 0.328125 -2.0q0.328125 -0.828125 0.921875 -1.453125q0.546875 -0.578125 1.2499695 -0.953125q0.71875 -0.390625 1.578125 -0.703125q1.625 -0.6093712 3.890625 -1.2499962q2.28125 -0.640625 3.328125 -1.140625l0 -1.734375q0 -0.453125 -0.078125 -1.1875q-0.0625 -0.75 -0.296875 -1.25q-0.25 -0.578125 -0.796875 -0.96875q-0.546875 -0.40625 -1.421875 -0.40625q-0.796875 0 -1.34375 0.234375q-0.53125 0.21875 -0.84375 0.453125q0.046875 0.359375 0.296875 1.109375q0.25 0.734375 0.25 1.421875q0 0.296875 -0.15625 0.765625q-0.15625 0.453125 -0.46875 0.734375q-0.421875 0.359375 -0.9375 0.5625q-0.515625 0.1875 -1.578125 0.1875q-1.515625 0 -2.2968445 -0.71875q-0.765625 -0.734375 -0.765625 -1.921875q0 -1.0 0.796875 -1.796875q0.8124695 -0.8125 1.9687195 -1.34375q1.125 -0.53125 2.609375 -0.828125q1.484375 -0.3125 2.75 -0.3125q1.75 0 3.203125 0.21875q1.46875 0.203125 2.65625 0.859375q1.109375 0.625 1.765625 1.828125q0.671875 1.203125 0.671875 3.140625q0 2.03125 -0.09375 4.843746q-0.078125 2.796875 -0.078125 3.671875q0 0.8125 0.25 1.296875q0.25 0.46875 0.75 0.703125q0.3125 0.140625 0.96875 0.171875q0.65625 0.015625 1.203125 0.015625l0 1.328125zm-8.984375 -9.421871q-1.015625 0.3437462 -2.015625 0.7968712q-0.984375 0.4375 -1.609375 0.921875q-0.671875 0.515625 -1.0625 1.296875q-0.375 0.78125 -0.375 1.84375q0 1.421875 0.640625 2.046875q0.640625 0.625 1.578125 0.625q1.0 0 1.640625 -0.40625q0.640625 -0.40625 1.125 -1.0l0.078125 -6.124996zm24.002136 8.968746q-1.15625 0.5 -2.46875 0.90625q-1.3125 0.40625 -3.21875 0.40625q-2.8125 0 -4.1875 -1.375q-1.359375 -1.375 -1.359375 -3.921875l0 -11.093746l-3.25 0l0 -1.9375l3.328125 0l0 -5.484375l5.875 0l0 5.484375l5.046875 0l0 1.9375l-5.015625 0l0 9.906246q0 2.109375 0.578125 3.0q0.59375 0.890625 2.109375 0.890625q0.484375 0 1.34375 -0.078125q0.875 -0.078125 1.21875 -0.15625l0 1.515625zm20.8208 -3.484375q-0.625 1.03125 -1.53125 1.9375q-0.890625 0.90625 -2.03125 1.5625q-1.203125 0.6875 -2.453125 1.03125q-1.234375 0.359375 -2.84375 0.359375q-2.671875 0 -4.609375 -0.75q-1.9375 -0.765625 -3.203125 -2.046875q-1.265625 -1.28125 -1.890625 -3.015625q-0.625 -1.75 -0.625 -3.796875q0 -1.8437462 0.671875 -3.5312462q0.6875 -1.6875 1.9375 -3.015625q1.21875 -1.28125 3.09375 -2.078125q1.875 -0.796875 4.1875 -0.796875q2.515625 0 4.140625 0.625q1.640625 0.609375 2.703125 1.6875q1.03125 1.03125 1.5 2.4375q0.46875 1.40625 0.46875 2.9375l0 1.171875l-12.21875 0q0 3.7031212 1.421875 5.640621q1.4375 1.921875 4.546875 1.921875q1.6875 0 3.046875 -0.921875q1.359375 -0.9375 2.3125 -2.359375l1.375 1.0zm-6.90625 -6.874996q0 -1.078125 -0.109375 -2.21875q-0.109375 -1.140625 -0.375 -1.859375q-0.3125 -0.84375 -0.84375 -1.28125q-0.53125 -0.4375 -1.34375 -0.4375q-1.390625 0 -2.21875 1.40625q-0.828125 1.40625 -0.90625 4.46875l5.796875 -0.078125zm26.827759 -3.421875q0 1.359375 -0.859375 2.40625q-0.84375 1.03125 -2.234375 1.03125q-1.3125 0 -2.234375 -0.65625q-0.90625 -0.671875 -0.90625 -1.96875q0 -0.640625 0.078125 -0.984375q0.09375 -0.359375 0.171875 -0.671875q-0.828125 0.046875 -1.75 0.59375q-0.921875 0.53125 -1.625 1.4375l0 9.921871q0 0.625 0.1875 1.046875q0.203125 0.40625 0.671875 0.640625q0.40625 0.203125 1.296875 0.34375q0.890625 0.125 1.296875 0.15625l0 1.3125l-12.09375 0l0 -1.3125q0.453125 -0.046875 0.90625 -0.109375q0.46875 -0.0625 0.796875 -0.171875q0.578125 -0.1875 0.796875 -0.609375q0.21875 -0.421875 0.21875 -1.078125l0 -10.515621q0 -0.65625 -0.3125 -1.171875q-0.3125 -0.515625 -0.75 -0.828125q-0.3125 -0.203125 -0.8125 -0.34375q-0.5 -0.15625 -1.09375 -0.203125l0 -1.328125l8.609375 -0.46875l0.28125 0.265625l0 2.625l0.0625 0q1.25 -1.4375 2.640625 -2.265625q1.40625 -0.828125 2.9375 -0.828125q1.671875 0 2.6875 1.046875q1.03125 1.03125 1.03125 2.6875zm21.842346 15.296871q-2.359375 0 -4.390625 -0.578125q-2.03125 -0.578125 -3.4375 -1.375l-1.25 1.265625l-1.53125 0l-0.234375 -9.265625l1.546875 0q0.53125 1.3125 1.34375 2.78125q0.8125 1.46875 1.875 2.625q1.109375 1.203125 2.46875 1.96875q1.359375 0.75 3.1875 0.75q2.453125 0 3.765625 -1.203125q1.3125 -1.203125 1.3125 -3.015625q0 -1.5 -1.109375 -2.515625q-1.109375 -1.03125 -3.4375 -1.7656212q-1.515625 -0.5 -2.796875 -0.90625q-1.265625 -0.421875 -2.390625 -0.859375q-2.578125 -1.03125 -3.84375 -2.9375q-1.25 -1.921875 -1.25 -4.28125q0 -1.5 0.640625 -2.875q0.65625 -1.390625 1.90625 -2.5q1.1875 -1.015625 3.046875 -1.671875q1.859375 -0.65625 4.046875 -0.65625q2.140625 0 4.0 0.59375q1.859375 0.578125 2.921875 1.1875l1.109375 -1.09375l1.5625 0l0.140625 8.75l-1.546875 0q-0.546875 -1.40625 -1.28125 -2.875q-0.71875 -1.484375 -1.53125 -2.453125q-0.890625 -1.046875 -2.046875 -1.671875q-1.15625 -0.625 -2.703125 -0.625q-1.953125 0 -3.203125 1.109375q-1.234375 1.09375 -1.234375 2.71875q0 1.53125 1.078125 2.515625q1.078125 0.96875 3.359375 1.71875q1.328125 0.453125 2.71875 0.90625q1.390625 0.4375 2.484375 0.859375q2.609375 1.015625 3.96875 2.796875q1.375 1.765625 1.375 4.406246q0 1.671875 -0.78125 3.234375q-0.78125 1.546875 -2.09375 2.5625q-1.453125 1.140625 -3.34375 1.75q-1.890625 0.625 -4.421875 0.625zm36.848206 -1.0625l-8.625 0.515625l-0.265625 -0.25l0 -2.359375l-0.109375 0q-0.609375 0.546875 -1.203125 1.09375q-0.578125 0.53125 -1.390625 0.953125q-0.921875 0.5 -1.75 0.734375q-0.828125 0.234375 -2.390625 0.234375q-2.734375 0 -4.1875 -1.640625q-1.453125 -1.65625 -1.453125 -4.65625l0 -8.124996q0 -0.703125 -0.28125 -1.140625q-0.265625 -0.453125 -0.703125 -0.796875q-0.375 -0.265625 -0.953125 -0.375q-0.578125 -0.125 -1.046875 -0.15625l0 -1.328125l8.765625 -0.46875l0.203125 0.265625l0 12.015621q0 1.859375 0.703125 2.75q0.71875 0.890625 1.96875 0.890625q1.28125 0 2.296875 -0.671875q1.03125 -0.671875 1.5 -1.421875l0 -9.749996q0 -0.609375 -0.234375 -1.09375q-0.234375 -0.484375 -0.6875 -0.796875q-0.328125 -0.21875 -0.9375 -0.28125q-0.59375 -0.078125 -1.234375 -0.109375l0 -1.328125l8.765625 -0.46875l0.265625 0.265625l0 13.953121q0 0.640625 0.25 1.078125q0.265625 0.4375 0.75 0.75q0.34375 0.21875 0.890625 0.296875q0.546875 0.078125 1.09375 0.09375l0 1.328125zm23.68396 -8.421875q0 3.8125 -2.546875 6.546875q-2.546875 2.71875 -6.4375 2.71875q-1.734375 0 -2.828125 -0.359375q-1.078125 -0.34375 -1.78125 -0.84375l-0.15625 0l0 5.078125q0 0.625 0.28125 1.09375q0.28125 0.46875 0.796875 0.6875q0.484375 0.203125 1.375 0.359375q0.890625 0.171875 1.5 0.203125l0 1.328125l-13.046875 0l0 -1.328125q0.453125 -0.03125 1.140625 -0.140625q0.6875 -0.09375 1.015625 -0.203125q0.578125 -0.203125 0.78125 -0.6875q0.21875 -0.46875 0.21875 -1.078125l0 -18.484371q-0.046875 -0.59375 -0.28125 -1.046875q-0.21875 -0.453125 -0.71875 -0.796875q-0.359375 -0.234375 -0.953125 -0.390625q-0.59375 -0.15625 -1.171875 -0.203125l0 -1.328125l8.796875 -0.46875l0.265625 0.234375l0 2.0l0.15625 0.046875q1.1875 -1.21875 2.640625 -1.875q1.453125 -0.671875 2.890625 -0.671875q3.734375 0 5.890625 2.65625q2.171875 2.640625 2.171875 6.953121zm-6.484375 0.078125q0 -1.3593712 -0.203125 -2.5937462q-0.1875 -1.25 -0.703125 -2.21875q-0.484375 -0.96875 -1.296875 -1.546875q-0.796875 -0.578125 -1.953125 -0.578125q-1.171875 0 -1.875 0.40625q-0.703125 0.40625 -1.234375 1.046875l0 10.249996q0.109375 0.359375 0.421875 0.9375q0.3125 0.5625 0.609375 0.90625q0.453125 0.484375 1.03125 0.71875q0.578125 0.234375 1.265625 0.234375q1.796875 0 2.859375 -1.921875q1.078125 -1.921875 1.078125 -5.640625zm31.035645 -0.078125q0 3.8125 -2.546875 6.546875q-2.546875 2.71875 -6.4375 2.71875q-1.734375 0 -2.828125 -0.359375q-1.078125 -0.34375 -1.78125 -0.84375l-0.15625 0l0 5.078125q0 0.625 0.28125 1.09375q0.28125 0.46875 0.796875 0.6875q0.484375 0.203125 1.375 0.359375q0.890625 0.171875 1.5 0.203125l0 1.328125l-13.046875 0l0 -1.328125q0.453125 -0.03125 1.140625 -0.140625q0.6875 -0.09375 1.015625 -0.203125q0.578125 -0.203125 0.78125 -0.6875q0.21875 -0.46875 0.21875 -1.078125l0 -18.484371q-0.046875 -0.59375 -0.28125 -1.046875q-0.21875 -0.453125 -0.71875 -0.796875q-0.359375 -0.234375 -0.953125 -0.390625q-0.59375 -0.15625 -1.171875 -0.203125l0 -1.328125l8.796875 -0.46875l0.265625 0.234375l0 2.0l0.15625 0.046875q1.1875 -1.21875 2.640625 -1.875q1.453125 -0.671875 2.890625 -0.671875q3.734375 0 5.890625 2.65625q2.171875 2.640625 2.171875 6.953121zm-6.484375 0.078125q0 -1.3593712 -0.203125 -2.5937462q-0.1875 -1.25 -0.703125 -2.21875q-0.484375 -0.96875 -1.296875 -1.546875q-0.796875 -0.578125 -1.953125 -0.578125q-1.171875 0 -1.875 0.40625q-0.703125 0.40625 -1.234375 1.046875l0 10.249996q0.109375 0.359375 0.421875 0.9375q0.3125 0.5625 0.609375 0.90625q0.453125 0.484375 1.03125 0.71875q0.578125 0.234375 1.265625 0.234375q1.796875 0 2.859375 -1.921875q1.078125 -1.921875 1.078125 -5.640625zm20.035645 8.71875l-11.328125 0l0 -1.3125q0.46875 -0.046875 0.90625 -0.09375q0.453125 -0.0625 0.796875 -0.1875q0.578125 -0.21875 0.78125 -0.625q0.21875 -0.40625 0.21875 -1.0625l0 -20.031246q0 -0.6875 -0.28125 -1.265625q-0.28125 -0.59375 -0.75 -0.890625q-0.359375 -0.234375 -1.09375 -0.453125q-0.734375 -0.21875 -1.296875 -0.25l0 -1.328125l9.09375 -0.46875l0.265625 0.296875l0 24.156246q0 0.65625 0.234375 1.078125q0.234375 0.40625 0.765625 0.65625q0.359375 0.15625 0.75 0.28125q0.40625 0.125 0.9375 0.1875l0 1.3125zm22.271667 -16.609371q-0.8125 0.125 -1.59375 0.625q-0.765625 0.484375 -1.265625 1.515625q-1.546875 3.28125 -3.203125 6.999996q-1.640625 3.703125 -3.640625 8.03125q-1.125 2.421875 -2.171875 3.859375q-1.046875 1.453125 -1.96875 2.234375q-0.875 0.71875 -1.71875 1.03125q-0.84375 0.328125 -1.71875 0.328125q-1.71875 0 -2.78125 -0.953125q-1.046875 -0.953125 -1.046875 -2.140625q0 -0.515625 0.109375 -0.953125q0.125 -0.421875 0.5 -0.890625q0.296875 -0.40625 0.890625 -0.6875q0.609375 -0.28125 1.375 -0.28125q1.015625 0 1.9375 0.703125q0.921875 0.703125 1.90625 1.953125q0.59375 -0.59375 1.46875 -1.78125q0.890625 -1.171875 1.296875 -2.421875q-2.140625 -4.515625 -3.8125 -7.828125q-1.65625 -3.3281212 -3.71875 -7.406246q-0.453125 -0.859375 -1.21875 -1.34375q-0.75 -0.484375 -1.59375 -0.59375l0 -1.3125l11.046875 0l0 1.3125q-0.609375 0.03125 -1.421875 0.28125q-0.796875 0.25 -0.796875 0.640625q0 0.15625 0.046875 0.328125q0.0625 0.171875 0.203125 0.484375q0.625 1.265625 1.75 3.515625q1.125 2.2499962 2.625 5.265621q1.125 -2.5625 1.90625 -4.406246q0.78125 -1.859375 1.53125 -3.640625q0.171875 -0.453125 0.203125 -0.71875q0.03125 -0.265625 0.03125 -0.359375q0 -0.3125 -0.328125 -0.5625q-0.3125 -0.25 -0.734375 -0.421875q-0.453125 -0.1875 -0.875 -0.265625q-0.421875 -0.09375 -0.6875 -0.140625l0 -1.3125l7.46875 0l0 1.3125z" fill-rule="nonzero"></path><path fill="#000000" fill-opacity="0.0" d="m320.29922 569.20996l305.00784 0l0 45.448853l-305.00784 0z" fill-rule="evenodd"></path><path fill="#4a86e8" d="m371.99457 601.25l0 -17.1875l6.46875 0q1.71875 0 2.625 0.171875q1.265625 0.203125 2.109375 0.796875q0.859375 0.59375 1.375 1.671875q0.53125 1.0625 0.53125 2.328125q0 2.203125 -1.40625 3.71875q-1.390625 1.515625 -5.03125 1.515625l-4.40625 0l0 6.984375l-2.265625 0zm2.265625 -9.015625l4.4375 0q2.203125 0 3.125 -0.8125q0.9375 -0.828125 0.9375 -2.3125q0 -1.078125 -0.546875 -1.84375q-0.546875 -0.765625 -1.4375 -1.015625q-0.578125 -0.15625 -2.125 -0.15625l-4.390625 0l0 6.140625zm25.007812 -8.171875l2.28125 0l0 9.9375q0 2.578125 -0.59375 4.109375q-0.578125 1.515625 -2.109375 2.484375q-1.53125 0.953125 -4.015625 0.953125q-2.421875 0 -3.953125 -0.828125q-1.53125 -0.84375 -2.1875 -2.421875q-0.65625 -1.578125 -0.65625 -4.296875l0 -9.9375l2.265625 0l0 9.921875q0 2.234375 0.421875 3.296875q0.421875 1.0625 1.421875 1.640625q1.015625 0.5625 2.484375 0.5625q2.515625 0 3.578125 -1.125q1.0625 -1.140625 1.0625 -4.375l0 -9.921875zm6.0976562 17.1875l0 -17.1875l7.609375 0q2.296875 0 3.484375 0.46875q1.203125 0.46875 1.921875 1.640625q0.71875 1.171875 0.71875 2.578125q0 1.828125 -1.1875 3.09375q-1.1875 1.25 -3.65625 1.59375q0.90625 0.421875 1.375 0.84375q1.0 0.921875 1.890625 2.296875l2.984375 4.671875l-2.859375 0l-2.28125 -3.578125q-0.984375 -1.546875 -1.640625 -2.359375q-0.640625 -0.828125 -1.15625 -1.15625q-0.5 -0.328125 -1.03125 -0.453125q-0.390625 -0.078125 -1.265625 -0.078125l-2.640625 0l0 7.625l-2.265625 0zm2.265625 -9.59375l4.890625 0q1.5625 0 2.4375 -0.328125q0.875 -0.328125 1.328125 -1.03125q0.46875 -0.703125 0.46875 -1.546875q0 -1.21875 -0.890625 -2.0q-0.875 -0.78125 -2.796875 -0.78125l-5.4375 0l0 5.6875zm15.410156 9.59375l0 -17.1875l2.28125 0l0 17.1875l-2.28125 0zm6.4023438 0l0 -17.1875l11.59375 0l0 2.03125l-9.3125 0l0 5.328125l8.0625 0l0 2.015625l-8.0625 0l0 7.8125l-2.28125 0zm14.925781 0l0 -17.1875l2.28125 0l0 17.1875l-2.28125 0zm6.3398438 0l0 -17.1875l12.421875 0l0 2.03125l-10.15625 0l0 5.265625l9.5 0l0 2.015625l-9.5 0l0 5.84375l10.546875 0l0 2.03125l-12.8125 0zm15.9609375 0l0 -17.1875l5.90625 0q2.015625 0 3.0625 0.25q1.484375 0.34375 2.515625 1.234375q1.359375 1.140625 2.03125 2.9375q0.6875 1.78125 0.6875 4.078125q0 1.953125 -0.46875 3.46875q-0.453125 1.515625 -1.171875 2.515625q-0.703125 0.984375 -1.5625 1.546875q-0.84375 0.5625 -2.046875 0.859375q-1.203125 0.296875 -2.765625 0.296875l-6.1875 0zm2.265625 -2.03125l3.671875 0q1.703125 0 2.65625 -0.3125q0.96875 -0.3125 1.546875 -0.890625q0.8125 -0.8125 1.265625 -2.171875q0.453125 -1.375 0.453125 -3.3125q0 -2.703125 -0.890625 -4.140625q-0.890625 -1.453125 -2.15625 -1.9375q-0.90625 -0.359375 -2.9375 -0.359375l-3.609375 0l0 13.125zm24.734375 2.03125l-4.5625 -17.1875l2.328125 0l2.609375 11.265625q0.421875 1.765625 0.734375 3.515625q0.65625 -2.75 0.765625 -3.171875l3.28125 -11.609375l2.734375 0l2.46875 8.703125q0.921875 3.234375 1.328125 6.078125q0.328125 -1.625 0.859375 -3.734375l2.6875 -11.046875l2.296875 0l-4.71875 17.1875l-2.1875 0l-3.625 -13.09375q-0.453125 -1.640625 -0.53125 -2.015625q-0.28125 1.1875 -0.515625 2.015625l-3.640625 13.09375l-2.3125 0zm17.761719 0l6.59375 -17.1875l2.453125 0l7.03125 17.1875l-2.59375 0l-2.0 -5.203125l-7.1875 0l-1.890625 5.203125l-2.40625 0zm4.953125 -7.0625l5.828125 0l-1.796875 -4.75q-0.8125 -2.171875 -1.21875 -3.5625q-0.328125 1.65625 -0.921875 3.28125l-1.890625 5.03125zm17.304688 7.0625l0 -15.15625l-5.65625 0l0 -2.03125l13.625 0l0 2.03125l-5.6875 0l0 15.15625l-2.28125 0zm10.347656 0l0 -17.1875l12.421875 0l0 2.03125l-10.15625 0l0 5.265625l9.5 0l0 2.015625l-9.5 0l0 5.84375l10.546875 0l0 2.03125l-12.8125 0zm15.9921875 0l0 -17.1875l7.609375 0q2.296875 0 3.484375 0.46875q1.203125 0.46875 1.921875 1.640625q0.71875 1.171875 0.71875 2.578125q0 1.828125 -1.1875 3.09375q-1.1875 1.25 -3.65625 1.59375q0.90625 0.421875 1.375 0.84375q1.0 0.921875 1.890625 2.296875l2.984375 4.671875l-2.859375 0l-2.28125 -3.578125q-0.984375 -1.546875 -1.640625 -2.359375q-0.640625 -0.828125 -1.15625 -1.15625q-0.5 -0.328125 -1.03125 -0.453125q-0.390625 -0.078125 -1.265625 -0.078125l-2.640625 0l0 7.625l-2.265625 0zm2.265625 -9.59375l4.890625 0q1.5625 0 2.4375 -0.328125q0.875 -0.328125 1.328125 -1.03125q0.46875 -0.703125 0.46875 -1.546875q0 -1.21875 -0.890625 -2.0q-0.875 -0.78125 -2.796875 -0.78125l-5.4375 0l0 5.6875z" fill-rule="nonzero"></path><path fill="#eeeeee" d="m320.29922 253.42717l305.00784 0l0 69.38582l-305.00784 0z" fill-rule="evenodd"></path><path stroke="#595959" stroke-width="1.0" stroke-linejoin="round" stroke-linecap="butt" d="m320.29922 253.42717l305.00784 0l0 69.38582l-305.00784 0z" fill-rule="evenodd"></path><path fill="#000000" d="m435.8598 291.14444l2.140625 -0.1875q0.15625 1.28125 0.703125 2.109375q0.5625 0.828125 1.734375 1.34375q1.171875 0.5 2.640625 0.5q1.296875 0 2.296875 -0.375q1.0 -0.390625 1.484375 -1.0625q0.484375 -0.6875 0.484375 -1.484375q0 -0.796875 -0.46875 -1.40625q-0.46875 -0.609375 -1.546875 -1.015625q-0.6875 -0.265625 -3.0625 -0.828125q-2.359375 -0.578125 -3.3125 -1.078125q-1.234375 -0.640625 -1.84375 -1.59375q-0.59375 -0.96875 -0.59375 -2.140625q0 -1.3125 0.734375 -2.4375q0.75 -1.125 2.15625 -1.703125q1.421875 -0.59375 3.15625 -0.59375q1.90625 0 3.359375 0.609375q1.46875 0.609375 2.25 1.8125q0.796875 1.1875 0.84375 2.703125l-2.171875 0.171875q-0.171875 -1.640625 -1.1875 -2.46875q-1.015625 -0.828125 -3.0 -0.828125q-2.0625 0 -3.015625 0.765625q-0.9375 0.75 -0.9375 1.8125q0 0.921875 0.671875 1.515625q0.65625 0.609375 3.421875 1.234375q2.78125 0.625 3.8125 1.09375q1.5 0.6875 2.203125 1.75q0.71875 1.0625 0.71875 2.4375q0 1.375 -0.78125 2.59375q-0.78125 1.203125 -2.25 1.890625q-1.46875 0.671875 -3.3125 0.671875q-2.328125 0 -3.90625 -0.671875q-1.578125 -0.6875 -2.484375 -2.046875q-0.890625 -1.375 -0.9375 -3.09375zm24.632812 0.953125l2.078125 0.265625q-0.34375 2.15625 -1.75 3.375q-1.390625 1.203125 -3.4375 1.203125q-2.546875 0 -4.109375 -1.671875q-1.546875 -1.671875 -1.546875 -4.78125q0 -2.015625 0.671875 -3.53125q0.671875 -1.515625 2.03125 -2.265625q1.359375 -0.765625 2.96875 -0.765625q2.03125 0 3.3125 1.03125q1.296875 1.03125 1.65625 2.90625l-2.046875 0.328125q-0.296875 -1.265625 -1.046875 -1.890625q-0.734375 -0.640625 -1.796875 -0.640625q-1.59375 0 -2.59375 1.15625q-0.984375 1.140625 -0.984375 3.609375q0 2.5 0.953125 3.640625q0.96875 1.140625 2.515625 1.140625q1.234375 0 2.0625 -0.765625q0.84375 -0.765625 1.0625 -2.34375zm3.859375 4.5625l0 -12.453125l1.890625 0l0 1.890625q0.734375 -1.328125 1.34375 -1.75q0.625 -0.421875 1.359375 -0.421875q1.0625 0 2.171875 0.6875l-0.734375 1.953125q-0.765625 -0.453125 -1.546875 -0.453125q-0.6875 0 -1.25 0.421875q-0.546875 0.40625 -0.78125 1.140625q-0.34375 1.125 -0.34375 2.46875l0 6.515625l-2.109375 0zm16.539062 -4.015625l2.171875 0.28125q-0.515625 1.90625 -1.90625 2.96875q-1.390625 1.046875 -3.5625 1.046875q-2.734375 0 -4.34375 -1.671875q-1.59375 -1.6875 -1.59375 -4.734375q0 -3.140625 1.609375 -4.875q1.625 -1.734375 4.203125 -1.734375q2.5 0 4.078125 1.703125q1.59375 1.703125 1.59375 4.78125q0 0.1875 -0.015625 0.5625l-9.28125 0q0.109375 2.046875 1.15625 3.140625q1.046875 1.09375 2.609375 1.09375q1.15625 0 1.96875 -0.609375q0.828125 -0.609375 1.3125 -1.953125zm-6.9375 -3.40625l6.953125 0q-0.140625 -1.5625 -0.796875 -2.359375q-1.0 -1.21875 -2.609375 -1.21875q-1.453125 0 -2.453125 0.984375q-0.984375 0.96875 -1.09375 2.59375zm20.285156 3.40625l2.171875 0.28125q-0.515625 1.90625 -1.90625 2.96875q-1.390625 1.046875 -3.5625 1.046875q-2.734375 0 -4.34375 -1.671875q-1.59375 -1.6875 -1.59375 -4.734375q0 -3.140625 1.609375 -4.875q1.625 -1.734375 4.203125 -1.734375q2.5 0 4.078125 1.703125q1.59375 1.703125 1.59375 4.78125q0 0.1875 -0.015625 0.5625l-9.28125 0q0.109375 2.046875 1.15625 3.140625q1.046875 1.09375 2.609375 1.09375q1.15625 0 1.96875 -0.609375q0.828125 -0.609375 1.3125 -1.953125zm-6.9375 -3.40625l6.953125 0q-0.140625 -1.5625 -0.796875 -2.359375q-1.0 -1.21875 -2.609375 -1.21875q-1.453125 0 -2.453125 0.984375q-0.984375 0.96875 -1.09375 2.59375zm11.753906 7.421875l0 -12.453125l1.90625 0l0 1.78125q1.375 -2.0625 3.953125 -2.0625q1.125 0 2.0625 0.40625q0.953125 0.40625 1.421875 1.0625q0.46875 0.65625 0.65625 1.5625q0.125 0.578125 0.125 2.046875l0 7.65625l-2.109375 0l0 -7.578125q0 -1.28125 -0.25 -1.921875q-0.25 -0.640625 -0.875 -1.015625q-0.625 -0.390625 -1.46875 -0.390625q-1.34375 0 -2.328125 0.859375q-0.984375 0.859375 -0.984375 3.25l0 6.796875l-2.109375 0z" fill-rule="nonzero"></path><path fill="#eeeeee" d="m320.29922 358.68765l305.00784 0l0 69.38583l-305.00784 0z" fill-rule="evenodd"></path><path stroke="#595959" stroke-width="1.0" stroke-linejoin="round" stroke-linecap="butt" d="m320.29922 358.68765l305.00784 0l0 69.38583l-305.00784 0z" fill-rule="evenodd"></path><path fill="#000000" d="m377.54144 395.8893l2.28125 0.578125q-0.71875 2.796875 -2.578125 4.28125q-1.859375 1.46875 -4.546875 1.46875q-2.765625 0 -4.515625 -1.125q-1.734375 -1.140625 -2.640625 -3.28125q-0.90625 -2.15625 -0.90625 -4.609375q0 -2.6875 1.015625 -4.6875q1.03125 -2.0 2.921875 -3.03125q1.890625 -1.03125 4.171875 -1.03125q2.578125 0 4.328125 1.3125q1.765625 1.3125 2.453125 3.6875l-2.234375 0.53125q-0.609375 -1.875 -1.75 -2.734375q-1.125 -0.859375 -2.84375 -0.859375q-1.984375 0 -3.3125 0.953125q-1.328125 0.953125 -1.875 2.546875q-0.53125 1.59375 -0.53125 3.296875q0 2.1875 0.625 3.828125q0.640625 1.640625 1.984375 2.453125q1.359375 0.796875 2.921875 0.796875q1.921875 0 3.234375 -1.09375q1.328125 -1.109375 1.796875 -3.28125zm4.7539062 6.03125l0 -17.1875l2.109375 0l0 17.1875l-2.109375 0zm13.503906 -1.53125q-1.171875 0.984375 -2.265625 1.40625q-1.078125 0.40625 -2.3125 0.40625q-2.046875 0 -3.15625 -1.0q-1.09375 -1.0 -1.09375 -2.5625q0 -0.921875 0.40625 -1.671875q0.421875 -0.75 1.09375 -1.203125q0.671875 -0.46875 1.515625 -0.703125q0.625 -0.15625 1.875 -0.3125q2.5625 -0.3125 3.765625 -0.734375q0.015625 -0.421875 0.015625 -0.546875q0 -1.28125 -0.609375 -1.8125q-0.796875 -0.71875 -2.390625 -0.71875q-1.5 0 -2.203125 0.53125q-0.703125 0.515625 -1.046875 1.84375l-2.0625 -0.28125q0.28125 -1.328125 0.921875 -2.140625q0.640625 -0.8125 1.859375 -1.25q1.21875 -0.453125 2.828125 -0.453125q1.59375 0 2.59375 0.375q1.0 0.375 1.46875 0.953125q0.46875 0.5625 0.65625 1.4375q0.09375 0.53125 0.09375 1.9375l0 2.8125q0 2.9375 0.140625 3.71875q0.140625 0.78125 0.53125 1.5l-2.203125 0q-0.328125 -0.65625 -0.421875 -1.53125zm-0.171875 -4.71875q-1.15625 0.46875 -3.453125 0.796875q-1.296875 0.1875 -1.84375 0.421875q-0.53125 0.234375 -0.828125 0.6875q-0.28125 0.453125 -0.28125 1.0q0 0.84375 0.625 1.40625q0.640625 0.5625 1.875 0.5625q1.21875 0 2.171875 -0.53125q0.953125 -0.53125 1.390625 -1.453125q0.34375 -0.71875 0.34375 -2.109375l0 -0.78125zm5.3789062 6.25l0 -12.453125l1.890625 0l0 1.890625q0.734375 -1.328125 1.34375 -1.75q0.625 -0.421875 1.359375 -0.421875q1.0625 0 2.171875 0.6875l-0.734375 1.953125q-0.765625 -0.453125 -1.546875 -0.453125q-0.6875 0 -1.25 0.421875q-0.546875 0.40625 -0.78125 1.140625q-0.34375 1.125 -0.34375 2.46875l0 6.515625l-2.109375 0zm8.0234375 -14.75l0 -2.4375l2.109375 0l0 2.4375l-2.109375 0zm0 14.75l0 -12.453125l2.109375 0l0 12.453125l-2.109375 0zm5.8320312 0l0 -10.8125l-1.875 0l0 -1.640625l1.875 0l0 -1.3125q0 -1.265625 0.21875 -1.875q0.296875 -0.8125 1.0625 -1.3125q0.78125 -0.515625 2.15625 -0.515625q0.890625 0 1.96875 0.203125l-0.3125 1.84375q-0.65625 -0.125 -1.25 -0.125q-0.953125 0 -1.359375 0.421875q-0.390625 0.40625 -0.390625 1.53125l0 1.140625l2.421875 0l0 1.640625l-2.421875 0l0 10.8125l-2.09375 0zm6.1679688 -14.75l0 -2.4375l2.109375 0l0 2.4375l-2.109375 0zm0 14.75l0 -12.453125l2.109375 0l0 12.453125l-2.109375 0zm13.441406 -4.5625l2.078125 0.265625q-0.34375 2.15625 -1.75 3.375q-1.390625 1.203125 -3.4375 1.203125q-2.546875 0 -4.109375 -1.671875q-1.546875 -1.671875 -1.546875 -4.78125q0 -2.015625 0.671875 -3.53125q0.671875 -1.515625 2.03125 -2.265625q1.359375 -0.765625 2.96875 -0.765625q2.03125 0 3.3125 1.03125q1.296875 1.03125 1.65625 2.90625l-2.046875 0.328125q-0.296875 -1.265625 -1.046875 -1.890625q-0.734375 -0.640625 -1.796875 -0.640625q-1.59375 0 -2.59375 1.15625q-0.984375 1.140625 -0.984375 3.609375q0 2.5 0.953125 3.640625q0.96875 1.140625 2.515625 1.140625q1.234375 0 2.0625 -0.765625q0.84375 -0.765625 1.0625 -2.34375zm12.0 3.03125q-1.171875 0.984375 -2.265625 1.40625q-1.078125 0.40625 -2.3125 0.40625q-2.046875 0 -3.15625 -1.0q-1.09375 -1.0 -1.09375 -2.5625q0 -0.921875 0.40625 -1.671875q0.421875 -0.75 1.09375 -1.203125q0.671875 -0.46875 1.515625 -0.703125q0.625 -0.15625 1.875 -0.3125q2.5625 -0.3125 3.765625 -0.734375q0.015625 -0.421875 0.015625 -0.546875q0 -1.28125 -0.609375 -1.8125q-0.796875 -0.71875 -2.390625 -0.71875q-1.5 0 -2.203125 0.53125q-0.703125 0.515625 -1.046875 1.84375l-2.0625 -0.28125q0.28125 -1.328125 0.921875 -2.140625q0.640625 -0.8125 1.859375 -1.25q1.21875 -0.453125 2.828125 -0.453125q1.59375 0 2.59375 0.375q1.0 0.375 1.46875 0.953125q0.46875 0.5625 0.65625 1.4375q0.09375 0.53125 0.09375 1.9375l0 2.8125q0 2.9375 0.140625 3.71875q0.140625 0.78125 0.53125 1.5l-2.203125 0q-0.328125 -0.65625 -0.421875 -1.53125zm-0.171875 -4.71875q-1.15625 0.46875 -3.453125 0.796875q-1.296875 0.1875 -1.84375 0.421875q-0.53125 0.234375 -0.828125 0.6875q-0.28125 0.453125 -0.28125 1.0q0 0.84375 0.625 1.40625q0.640625 0.5625 1.875 0.5625q1.21875 0 2.171875 -0.53125q0.953125 -0.53125 1.390625 -1.453125q0.34375 -0.71875 0.34375 -2.109375l0 -0.78125zm10.003906 4.359375l0.3125 1.859375q-0.890625 0.203125 -1.59375 0.203125q-1.15625 0 -1.796875 -0.359375q-0.625 -0.375 -0.890625 -0.96875q-0.25 -0.59375 -0.25 -2.484375l0 -7.171875l-1.546875 0l0 -1.640625l1.546875 0l0 -3.078125l2.09375 -1.265625l0 4.34375l2.125 0l0 1.640625l-2.125 0l0 7.28125q0 0.90625 0.109375 1.171875q0.125 0.25 0.375 0.40625q0.25 0.140625 0.71875 0.140625q0.34375 0 0.921875 -0.078125zm2.0742188 -12.859375l0 -2.4375l2.109375 0l0 2.4375l-2.109375 0zm0 14.75l0 -12.453125l2.109375 0l0 12.453125l-2.109375 0zm4.5351562 -6.21875q0 -3.46875 1.921875 -5.125q1.609375 -1.390625 3.921875 -1.390625q2.5625 0 4.1875 1.6875q1.625 1.6875 1.625 4.640625q0 2.40625 -0.71875 3.78125q-0.71875 1.375 -2.09375 2.140625q-1.375 0.765625 -3.0 0.765625q-2.625 0 -4.234375 -1.671875q-1.609375 -1.6875 -1.609375 -4.828125zm2.171875 0q0 2.390625 1.03125 3.578125q1.046875 1.1875 2.640625 1.1875q1.5625 0 2.609375 -1.1875q1.046875 -1.203125 1.046875 -3.65625q0 -2.3125 -1.0625 -3.5q-1.046875 -1.1875 -2.59375 -1.1875q-1.59375 0 -2.640625 1.1875q-1.03125 1.1875 -1.03125 3.578125zm11.957031 6.21875l0 -12.453125l1.90625 0l0 1.78125q1.375 -2.0625 3.953125 -2.0625q1.125 0 2.0625 0.40625q0.953125 0.40625 1.421875 1.0625q0.46875 0.65625 0.65625 1.5625q0.125 0.578125 0.125 2.046875l0 7.65625l-2.109375 0l0 -7.578125q0 -1.28125 -0.25 -1.921875q-0.25 -0.640625 -0.875 -1.015625q-0.625 -0.390625 -1.46875 -0.390625q-1.34375 0 -2.328125 0.859375q-0.984375 0.859375 -0.984375 3.25l0 6.796875l-2.109375 0zm20.296875 0l0 -17.1875l6.46875 0q1.71875 0 2.625 0.171875q1.265625 0.203125 2.109375 0.796875q0.859375 0.59375 1.375 1.671875q0.53125 1.0625 0.53125 2.328125q0 2.203125 -1.40625 3.71875q-1.390625 1.515625 -5.03125 1.515625l-4.40625 0l0 6.984375l-2.265625 0zm2.265625 -9.015625l4.4375 0q2.203125 0 3.125 -0.8125q0.9375 -0.828125 0.9375 -2.3125q0 -1.078125 -0.546875 -1.84375q-0.546875 -0.765625 -1.4375 -1.015625q-0.578125 -0.15625 -2.125 -0.15625l-4.390625 0l0 6.140625zm13.4453125 9.015625l0 -12.453125l1.890625 0l0 1.890625q0.734375 -1.328125 1.34375 -1.75q0.625 -0.421875 1.359375 -0.421875q1.0625 0 2.171875 0.6875l-0.734375 1.953125q-0.765625 -0.453125 -1.546875 -0.453125q-0.6875 0 -1.25 0.421875q-0.546875 0.40625 -0.78125 1.140625q-0.34375 1.125 -0.34375 2.46875l0 6.515625l-2.109375 0zm7.2265625 -6.21875q0 -3.46875 1.921875 -5.125q1.609375 -1.390625 3.921875 -1.390625q2.5625 0 4.1875 1.6875q1.625 1.6875 1.625 4.640625q0 2.40625 -0.71875 3.78125q-0.71875 1.375 -2.09375 2.140625q-1.375 0.765625 -3.0 0.765625q-2.625 0 -4.234375 -1.671875q-1.609375 -1.6875 -1.609375 -4.828125zm2.171875 0q0 2.390625 1.03125 3.578125q1.046875 1.1875 2.640625 1.1875q1.5625 0 2.609375 -1.1875q1.046875 -1.203125 1.046875 -3.65625q0 -2.3125 -1.0625 -3.5q-1.046875 -1.1875 -2.59375 -1.1875q-1.59375 0 -2.640625 1.1875q-1.03125 1.1875 -1.03125 3.578125zm20.082031 1.65625l2.078125 0.265625q-0.34375 2.15625 -1.75 3.375q-1.390625 1.203125 -3.4375 1.203125q-2.546875 0 -4.109375 -1.671875q-1.546875 -1.671875 -1.546875 -4.78125q0 -2.015625 0.671875 -3.53125q0.671875 -1.515625 2.03125 -2.265625q1.359375 -0.765625 2.96875 -0.765625q2.03125 0 3.3125 1.03125q1.296875 1.03125 1.65625 2.90625l-2.046875 0.328125q-0.296875 -1.265625 -1.046875 -1.890625q-0.734375 -0.640625 -1.796875 -0.640625q-1.59375 0 -2.59375 1.15625q-0.984375 1.140625 -0.984375 3.609375q0 2.5 0.953125 3.640625q0.96875 1.140625 2.515625 1.140625q1.234375 0 2.0625 -0.765625q0.84375 -0.765625 1.0625 -2.34375zm12.40625 0.546875l2.171875 0.28125q-0.515625 1.90625 -1.90625 2.96875q-1.390625 1.046875 -3.5625 1.046875q-2.734375 0 -4.34375 -1.671875q-1.59375 -1.6875 -1.59375 -4.734375q0 -3.140625 1.609375 -4.875q1.625 -1.734375 4.203125 -1.734375q2.5 0 4.078125 1.703125q1.59375 1.703125 1.59375 4.78125q0 0.1875 -0.015625 0.5625l-9.28125 0q0.109375 2.046875 1.15625 3.140625q1.046875 1.09375 2.609375 1.09375q1.15625 0 1.96875 -0.609375q0.828125 -0.609375 1.3125 -1.953125zm-6.9375 -3.40625l6.953125 0q-0.140625 -1.5625 -0.796875 -2.359375q-1.0 -1.21875 -2.609375 -1.21875q-1.453125 0 -2.453125 0.984375q-0.984375 0.96875 -1.09375 2.59375zm10.910156 3.703125l2.09375 -0.328125q0.171875 1.25 0.96875 1.921875q0.8125 0.671875 2.25 0.671875q1.453125 0 2.15625 -0.59375q0.703125 -0.59375 0.703125 -1.390625q0 -0.71875 -0.625 -1.125q-0.421875 -0.28125 -2.15625 -0.71875q-2.3125 -0.578125 -3.21875 -1.0q-0.890625 -0.4375 -1.359375 -1.1875q-0.453125 -0.765625 -0.453125 -1.671875q0 -0.828125 0.375 -1.53125q0.390625 -0.71875 1.046875 -1.1875q0.484375 -0.359375 1.328125 -0.609375q0.859375 -0.265625 1.828125 -0.265625q1.46875 0 2.578125 0.421875q1.109375 0.421875 1.625 1.15625q0.53125 0.71875 0.734375 1.921875l-2.0625 0.28125q-0.140625 -0.96875 -0.8125 -1.5q-0.671875 -0.546875 -1.90625 -0.546875q-1.453125 0 -2.078125 0.484375q-0.625 0.484375 -0.625 1.125q0 0.40625 0.265625 0.734375q0.25 0.34375 0.8125 0.5625q0.3125 0.125 1.859375 0.546875q2.234375 0.59375 3.109375 0.984375q0.890625 0.375 1.390625 1.109375q0.515625 0.71875 0.515625 1.796875q0 1.046875 -0.625 1.984375q-0.609375 0.9375 -1.765625 1.453125q-1.15625 0.5 -2.625 0.5q-2.421875 0 -3.703125 -1.0q-1.265625 -1.015625 -1.625 -3.0zm12.0 0l2.09375 -0.328125q0.171875 1.25 0.96875 1.921875q0.8125 0.671875 2.25 0.671875q1.453125 0 2.15625 -0.59375q0.703125 -0.59375 0.703125 -1.390625q0 -0.71875 -0.625 -1.125q-0.421875 -0.28125 -2.15625 -0.71875q-2.3125 -0.578125 -3.21875 -1.0q-0.890625 -0.4375 -1.359375 -1.1875q-0.453125 -0.765625 -0.453125 -1.671875q0 -0.828125 0.375 -1.53125q0.390625 -0.71875 1.046875 -1.1875q0.484375 -0.359375 1.328125 -0.609375q0.859375 -0.265625 1.828125 -0.265625q1.46875 0 2.578125 0.421875q1.109375 0.421875 1.625 1.15625q0.53125 0.71875 0.734375 1.921875l-2.0625 0.28125q-0.140625 -0.96875 -0.8125 -1.5q-0.671875 -0.546875 -1.90625 -0.546875q-1.453125 0 -2.078125 0.484375q-0.625 0.484375 -0.625 1.125q0 0.40625 0.265625 0.734375q0.25 0.34375 0.8125 0.5625q0.3125 0.125 1.859375 0.546875q2.234375 0.59375 3.109375 0.984375q0.890625 0.375 1.390625 1.109375q0.515625 0.71875 0.515625 1.796875q0 1.046875 -0.625 1.984375q-0.609375 0.9375 -1.765625 1.453125q-1.15625 0.5 -2.625 0.5q-2.421875 0 -3.703125 -1.0q-1.265625 -1.015625 -1.625 -3.0z" fill-rule="nonzero"></path><path fill="#eeeeee" d="m320.29922 463.94815l305.00784 0l0 69.38583l-305.00784 0z" fill-rule="evenodd"></path><path stroke="#595959" stroke-width="1.0" stroke-linejoin="round" stroke-linecap="butt" d="m320.29922 463.94815l305.00784 0l0 69.38583l-305.00784 0z" fill-rule="evenodd"></path><path fill="#000000" d="m377.3266 507.18106l0 -17.1875l12.421875 0l0 2.03125l-10.15625 0l0 5.265625l9.5 0l0 2.015625l-9.5 0l0 5.84375l10.546875 0l0 2.03125l-12.8125 0zm19.148438 0l-4.734375 -12.453125l2.21875 0l2.671875 7.453125q0.4375 1.21875 0.796875 2.515625q0.28125 -0.984375 0.78125 -2.375l2.765625 -7.59375l2.171875 0l-4.703125 12.453125l-1.96875 0zm16.65625 -1.53125q-1.171875 0.984375 -2.265625 1.40625q-1.078125 0.40625 -2.3125 0.40625q-2.046875 0 -3.15625 -1.0q-1.09375 -1.0 -1.09375 -2.5625q0 -0.921875 0.40625 -1.671875q0.421875 -0.75 1.09375 -1.203125q0.671875 -0.46875 1.515625 -0.703125q0.625 -0.15625 1.875 -0.3125q2.5625 -0.3125 3.765625 -0.734375q0.015625 -0.421875 0.015625 -0.546875q0 -1.28125 -0.609375 -1.8125q-0.796875 -0.71875 -2.390625 -0.71875q-1.5 0 -2.203125 0.53125q-0.703125 0.515625 -1.046875 1.84375l-2.0625 -0.28125q0.28125 -1.328125 0.921875 -2.140625q0.640625 -0.8125 1.859375 -1.25q1.21875 -0.453125 2.828125 -0.453125q1.59375 0 2.59375 0.375q1.0 0.375 1.46875 0.953125q0.46875 0.5625 0.65625 1.4375q0.09375 0.53125 0.09375 1.9375l0 2.8125q0 2.9375 0.140625 3.71875q0.140625 0.78125 0.53125 1.5l-2.203125 0q-0.328125 -0.65625 -0.421875 -1.53125zm-0.171875 -4.71875q-1.15625 0.46875 -3.453125 0.796875q-1.296875 0.1875 -1.84375 0.421875q-0.53125 0.234375 -0.828125 0.6875q-0.28125 0.453125 -0.28125 1.0q0 0.84375 0.625 1.40625q0.640625 0.5625 1.875 0.5625q1.21875 0 2.171875 -0.53125q0.953125 -0.53125 1.390625 -1.453125q0.34375 -0.71875 0.34375 -2.109375l0 -0.78125zm5.3945312 11.015625l0 -17.21875l1.921875 0l0 1.625q0.6875 -0.953125 1.53125 -1.421875q0.859375 -0.484375 2.078125 -0.484375q1.59375 0 2.8125 0.828125q1.21875 0.8125 1.84375 2.3125q0.625 1.5 0.625 3.28125q0 1.90625 -0.6875 3.4375q-0.6875 1.53125 -2.0 2.34375q-1.296875 0.8125 -2.734375 0.8125q-1.0625 0 -1.90625 -0.4375q-0.828125 -0.453125 -1.375 -1.140625l0 6.0625l-2.109375 0zm1.921875 -10.921875q0 2.40625 0.96875 3.5625q0.96875 1.140625 2.359375 1.140625q1.40625 0 2.40625 -1.1875q1.0 -1.1875 1.0 -3.6875q0 -2.375 -0.984375 -3.5625q-0.96875 -1.1875 -2.328125 -1.1875q-1.359375 0 -2.390625 1.265625q-1.03125 1.25 -1.03125 3.65625zm10.644531 -0.0625q0 -3.46875 1.921875 -5.125q1.609375 -1.390625 3.921875 -1.390625q2.5625 0 4.1875 1.6875q1.625 1.6875 1.625 4.640625q0 2.40625 -0.71875 3.78125q-0.71875 1.375 -2.09375 2.140625q-1.375 0.765625 -3.0 0.765625q-2.625 0 -4.234375 -1.671875q-1.609375 -1.6875 -1.609375 -4.828125zm2.171875 0q0 2.390625 1.03125 3.578125q1.046875 1.1875 2.640625 1.1875q1.5625 0 2.609375 -1.1875q1.046875 -1.203125 1.046875 -3.65625q0 -2.3125 -1.0625 -3.5q-1.046875 -1.1875 -2.59375 -1.1875q-1.59375 0 -2.640625 1.1875q-1.03125 1.1875 -1.03125 3.578125zm11.941406 6.21875l0 -12.453125l1.890625 0l0 1.890625q0.734375 -1.328125 1.34375 -1.75q0.625 -0.421875 1.359375 -0.421875q1.0625 0 2.171875 0.6875l-0.734375 1.953125q-0.765625 -0.453125 -1.546875 -0.453125q-0.6875 0 -1.25 0.421875q-0.546875 0.40625 -0.78125 1.140625q-0.34375 1.125 -0.34375 2.46875l0 6.515625l-2.109375 0zm16.132812 -1.53125q-1.171875 0.984375 -2.265625 1.40625q-1.078125 0.40625 -2.3125 0.40625q-2.046875 0 -3.15625 -1.0q-1.09375 -1.0 -1.09375 -2.5625q0 -0.921875 0.40625 -1.671875q0.421875 -0.75 1.09375 -1.203125q0.671875 -0.46875 1.515625 -0.703125q0.625 -0.15625 1.875 -0.3125q2.5625 -0.3125 3.765625 -0.734375q0.015625 -0.421875 0.015625 -0.546875q0 -1.28125 -0.609375 -1.8125q-0.796875 -0.71875 -2.390625 -0.71875q-1.5 0 -2.203125 0.53125q-0.703125 0.515625 -1.046875 1.84375l-2.0625 -0.28125q0.28125 -1.328125 0.921875 -2.140625q0.640625 -0.8125 1.859375 -1.25q1.21875 -0.453125 2.828125 -0.453125q1.59375 0 2.59375 0.375q1.0 0.375 1.46875 0.953125q0.46875 0.5625 0.65625 1.4375q0.09375 0.53125 0.09375 1.9375l0 2.8125q0 2.9375 0.140625 3.71875q0.140625 0.78125 0.53125 1.5l-2.203125 0q-0.328125 -0.65625 -0.421875 -1.53125zm-0.171875 -4.71875q-1.15625 0.46875 -3.453125 0.796875q-1.296875 0.1875 -1.84375 0.421875q-0.53125 0.234375 -0.828125 0.6875q-0.28125 0.453125 -0.28125 1.0q0 0.84375 0.625 1.40625q0.640625 0.5625 1.875 0.5625q1.21875 0 2.171875 -0.53125q0.953125 -0.53125 1.390625 -1.453125q0.34375 -0.71875 0.34375 -2.109375l0 -0.78125zm10.003906 4.359375l0.3125 1.859375q-0.890625 0.203125 -1.59375 0.203125q-1.15625 0 -1.796875 -0.359375q-0.625 -0.375 -0.890625 -0.96875q-0.25 -0.59375 -0.25 -2.484375l0 -7.171875l-1.546875 0l0 -1.640625l1.546875 0l0 -3.078125l2.09375 -1.265625l0 4.34375l2.125 0l0 1.640625l-2.125 0l0 7.28125q0 0.90625 0.109375 1.171875q0.125 0.25 0.375 0.40625q0.25 0.140625 0.71875 0.140625q0.34375 0 0.921875 -0.078125zm2.0742188 -12.859375l0 -2.4375l2.109375 0l0 2.4375l-2.109375 0zm0 14.75l0 -12.453125l2.109375 0l0 12.453125l-2.109375 0zm4.5351562 -6.21875q0 -3.46875 1.921875 -5.125q1.609375 -1.390625 3.921875 -1.390625q2.5625 0 4.1875 1.6875q1.625 1.6875 1.625 4.640625q0 2.40625 -0.71875 3.78125q-0.71875 1.375 -2.09375 2.140625q-1.375 0.765625 -3.0 0.765625q-2.625 0 -4.234375 -1.671875q-1.609375 -1.6875 -1.609375 -4.828125zm2.171875 0q0 2.390625 1.03125 3.578125q1.046875 1.1875 2.640625 1.1875q1.5625 0 2.609375 -1.1875q1.046875 -1.203125 1.046875 -3.65625q0 -2.3125 -1.0625 -3.5q-1.046875 -1.1875 -2.59375 -1.1875q-1.59375 0 -2.640625 1.1875q-1.03125 1.1875 -1.03125 3.578125zm11.957031 6.21875l0 -12.453125l1.90625 0l0 1.78125q1.375 -2.0625 3.953125 -2.0625q1.125 0 2.0625 0.40625q0.953125 0.40625 1.421875 1.0625q0.46875 0.65625 0.65625 1.5625q0.125 0.578125 0.125 2.046875l0 7.65625l-2.109375 0l0 -7.578125q0 -1.28125 -0.25 -1.921875q-0.25 -0.640625 -0.875 -1.015625q-0.625 -0.390625 -1.46875 -0.390625q-1.34375 0 -2.328125 0.859375q-0.984375 0.859375 -0.984375 3.25l0 6.796875l-2.109375 0zm32.546875 -6.03125l2.28125 0.578125q-0.71875 2.796875 -2.578125 4.28125q-1.859375 1.46875 -4.546875 1.46875q-2.765625 0 -4.515625 -1.125q-1.734375 -1.140625 -2.640625 -3.28125q-0.90625 -2.15625 -0.90625 -4.609375q0 -2.6875 1.015625 -4.6875q1.03125 -2.0 2.921875 -3.03125q1.890625 -1.03125 4.171875 -1.03125q2.578125 0 4.328125 1.3125q1.765625 1.3125 2.453125 3.6875l-2.234375 0.53125q-0.609375 -1.875 -1.75 -2.734375q-1.125 -0.859375 -2.84375 -0.859375q-1.984375 0 -3.3125 0.953125q-1.328125 0.953125 -1.875 2.546875q-0.53125 1.59375 -0.53125 3.296875q0 2.1875 0.625 3.828125q0.640625 1.640625 1.984375 2.453125q1.359375 0.796875 2.921875 0.796875q1.921875 0 3.234375 -1.09375q1.328125 -1.109375 1.796875 -3.28125zm4.7070312 10.828125l-0.234375 -1.984375q0.703125 0.1875 1.21875 0.1875q0.703125 0 1.125 -0.234375q0.421875 -0.234375 0.6875 -0.65625q0.203125 -0.3125 0.640625 -1.5625q0.0625 -0.1875 0.1875 -0.515625l-4.71875 -12.484375l2.265625 0l2.59375 7.21875q0.5 1.359375 0.90625 2.875q0.359375 -1.453125 0.859375 -2.828125l2.671875 -7.265625l2.109375 0l-4.734375 12.671875q-0.765625 2.046875 -1.1875 2.8125q-0.5625 1.046875 -1.296875 1.53125q-0.71875 0.48440552 -1.734375 0.48440552q-0.609375 0 -1.359375 -0.25003052zm20.21875 -9.359375l2.078125 0.265625q-0.34375 2.15625 -1.75 3.375q-1.390625 1.203125 -3.4375 1.203125q-2.546875 0 -4.109375 -1.671875q-1.546875 -1.671875 -1.546875 -4.78125q0 -2.015625 0.671875 -3.53125q0.671875 -1.515625 2.03125 -2.265625q1.359375 -0.765625 2.96875 -0.765625q2.03125 0 3.3125 1.03125q1.296875 1.03125 1.65625 2.90625l-2.046875 0.328125q-0.296875 -1.265625 -1.046875 -1.890625q-0.734375 -0.640625 -1.796875 -0.640625q-1.59375 0 -2.59375 1.15625q-0.984375 1.140625 -0.984375 3.609375q0 2.5 0.953125 3.640625q0.96875 1.140625 2.515625 1.140625q1.234375 0 2.0625 -0.765625q0.84375 -0.765625 1.0625 -2.34375zm3.828125 4.5625l0 -17.1875l2.109375 0l0 17.1875l-2.109375 0zm13.910156 -4.015625l2.171875 0.28125q-0.515625 1.90625 -1.90625 2.96875q-1.390625 1.046875 -3.5625 1.046875q-2.734375 0 -4.34375 -1.671875q-1.59375 -1.6875 -1.59375 -4.734375q0 -3.140625 1.609375 -4.875q1.625 -1.734375 4.203125 -1.734375q2.5 0 4.078125 1.703125q1.59375 1.703125 1.59375 4.78125q0 0.1875 -0.015625 0.5625l-9.28125 0q0.109375 2.046875 1.15625 3.140625q1.046875 1.09375 2.609375 1.09375q1.15625 0 1.96875 -0.609375q0.828125 -0.609375 1.3125 -1.953125zm-6.9375 -3.40625l6.953125 0q-0.140625 -1.5625 -0.796875 -2.359375q-1.0 -1.21875 -2.609375 -1.21875q-1.453125 0 -2.453125 0.984375q-0.984375 0.96875 -1.09375 2.59375z" fill-rule="nonzero"></path><path fill="#000000" fill-opacity="0.0" d="m472.80316 322.813l0 35.874023" fill-rule="evenodd"></path><path stroke="#595959" stroke-width="1.0" stroke-linejoin="round" stroke-linecap="butt" d="m472.80316 322.813l0 29.874023" fill-rule="evenodd"></path><path fill="#595959" stroke="#595959" stroke-width="1.0" stroke-linecap="butt" d="m471.15143 352.687l1.6517334 4.538086l1.6517334 -4.538086z" fill-rule="evenodd"></path><path fill="#000000" fill-opacity="0.0" d="m472.80316 428.0735l0 35.874023" fill-rule="evenodd"></path><path stroke="#595959" stroke-width="1.0" stroke-linejoin="round" stroke-linecap="butt" d="m472.80316 428.0735l0 29.874023" fill-rule="evenodd"></path><path fill="#595959" stroke="#595959" stroke-width="1.0" stroke-linecap="butt" d="m471.15143 457.9475l1.6517334 4.538086l1.6517334 -4.538086z" fill-rule="evenodd"></path><path fill="#000000" fill-opacity="0.0" d="m472.80316 533.334l0 35.874023" fill-rule="evenodd"></path><path stroke="#595959" stroke-width="1.0" stroke-linejoin="round" stroke-linecap="butt" d="m472.80316 533.334l0 29.874023" fill-rule="evenodd"></path><path fill="#595959" stroke="#595959" stroke-width="1.0" stroke-linecap="butt" d="m471.15143 563.208l1.6517334 4.538086l1.6517334 -4.538086z" fill-rule="evenodd"></path><path fill="#eeeeee" d="m371.4472 132.99475l203.3274 0l0 0c26.636414 0 48.229553 18.092499 48.229553 40.410706c0 22.318222 -21.59314 40.41072 -48.229553 40.41072l-203.3274 0l0 0c-26.636444 0 -48.229523 -18.092499 -48.229523 -40.41072c0 -22.318207 21.593079 -40.410706 48.229523 -40.410706z" fill-rule="evenodd"></path><path stroke="#595959" stroke-width="1.0" stroke-linejoin="round" stroke-linecap="butt" d="m371.4472 132.99475l203.3274 0l0 0c26.636414 0 48.229553 18.092499 48.229553 40.410706c0 22.318222 -21.59314 40.41072 -48.229553 40.41072l-203.3274 0l0 0c-26.636444 0 -48.229523 -18.092499 -48.229523 -40.41072c0 -22.318207 21.593079 -40.410706 48.229523 -40.410706z" fill-rule="evenodd"></path><path fill="#000000" d="m403.5738 173.57047q0 -4.265625 2.296875 -6.6875q2.296875 -2.421875 5.9375 -2.421875q2.375 0 4.28125 1.140625q1.921875 1.125 2.921875 3.171875q1.0 2.03125 1.0 4.609375q0 2.609375 -1.0625 4.671875q-1.046875 2.0625 -2.984375 3.125q-1.9375 1.0625 -4.171875 1.0625q-2.421875 0 -4.34375 -1.171875q-1.90625 -1.171875 -2.890625 -3.203125q-0.984375 -2.03125 -0.984375 -4.296875zm2.34375 0.046875q0 3.09375 1.671875 4.890625q1.671875 1.78125 4.1875 1.78125q2.578125 0 4.234375 -1.796875q1.65625 -1.8125 1.65625 -5.125q0 -2.09375 -0.71875 -3.65625q-0.703125 -1.578125 -2.078125 -2.4375q-1.359375 -0.859375 -3.046875 -0.859375q-2.421875 0 -4.171875 1.65625q-1.734375 1.65625 -1.734375 5.546875zm24.871094 3.765625l2.078125 0.265625q-0.34375 2.15625 -1.75 3.375q-1.390625 1.203125 -3.4375 1.203125q-2.546875 0 -4.109375 -1.671875q-1.546875 -1.671875 -1.546875 -4.78125q0 -2.015625 0.671875 -3.53125q0.671875 -1.515625 2.03125 -2.265625q1.359375 -0.765625 2.96875 -0.765625q2.03125 0 3.3125 1.03125q1.296875 1.03125 1.65625 2.90625l-2.046875 0.328125q-0.296875 -1.265625 -1.046875 -1.890625q-0.734375 -0.640625 -1.796875 -0.640625q-1.59375 0 -2.59375 1.15625q-0.984375 1.140625 -0.984375 3.609375q0 2.5 0.953125 3.640625q0.96875 1.140625 2.515625 1.140625q1.234375 0 2.0625 -0.765625q0.84375 -0.765625 1.0625 -2.34375zm12.40625 0.546875l2.171875 0.28125q-0.515625 1.90625 -1.90625 2.96875q-1.390625 1.046875 -3.5625 1.046875q-2.734375 0 -4.34375 -1.671875q-1.59375 -1.6875 -1.59375 -4.734375q0 -3.140625 1.609375 -4.875q1.625 -1.734375 4.203125 -1.734375q2.5 0 4.078125 1.703125q1.59375 1.703125 1.59375 4.78125q0 0.1875 -0.015625 0.5625l-9.28125 0q0.109375 2.046875 1.15625 3.140625q1.046875 1.09375 2.609375 1.09375q1.15625 0 1.96875 -0.609375q0.828125 -0.609375 1.3125 -1.953125zm-6.9375 -3.40625l6.953125 0q-0.140625 -1.5625 -0.796875 -2.359375q-1.0 -1.21875 -2.609375 -1.21875q-1.453125 0 -2.453125 0.984375q-0.984375 0.96875 -1.09375 2.59375zm19.878906 5.890625q-1.171875 0.984375 -2.265625 1.40625q-1.078125 0.40625 -2.3125 0.40625q-2.046875 0 -3.15625 -1.0q-1.09375 -1.0 -1.09375 -2.5625q0 -0.921875 0.40625 -1.671875q0.421875 -0.75 1.09375 -1.203125q0.671875 -0.46875 1.515625 -0.703125q0.625 -0.15625 1.875 -0.3125q2.5625 -0.3125 3.765625 -0.734375q0.015625 -0.421875 0.015625 -0.546875q0 -1.28125 -0.609375 -1.8125q-0.796875 -0.71875 -2.390625 -0.71875q-1.5 0 -2.203125 0.53125q-0.703125 0.515625 -1.046875 1.84375l-2.0625 -0.28125q0.28125 -1.328125 0.921875 -2.140625q0.640625 -0.8125 1.859375 -1.25q1.21875 -0.453125 2.828125 -0.453125q1.59375 0 2.59375 0.375q1.0 0.375 1.46875 0.953125q0.46875 0.5625 0.65625 1.4375q0.09375 0.53125 0.09375 1.9375l0 2.8125q0 2.9375 0.140625 3.71875q0.140625 0.78125 0.53125 1.5l-2.203125 0q-0.328125 -0.65625 -0.421875 -1.53125zm-0.171875 -4.71875q-1.15625 0.46875 -3.453125 0.796875q-1.296875 0.1875 -1.84375 0.421875q-0.53125 0.234375 -0.828125 0.6875q-0.28125 0.453125 -0.28125 1.0q0 0.84375 0.625 1.40625q0.640625 0.5625 1.875 0.5625q1.21875 0 2.171875 -0.53125q0.953125 -0.53125 1.390625 -1.453125q0.34375 -0.71875 0.34375 -2.109375l0 -0.78125zm5.3945312 6.25l0 -12.453125l1.90625 0l0 1.78125q1.375 -2.0625 3.953125 -2.0625q1.125 0 2.0625 0.40625q0.953125 0.40625 1.421875 1.0625q0.46875 0.65625 0.65625 1.5625q0.125 0.578125 0.125 2.046875l0 7.65625l-2.109375 0l0 -7.578125q0 -1.28125 -0.25 -1.921875q-0.25 -0.640625 -0.875 -1.015625q-0.625 -0.390625 -1.46875 -0.390625q-1.34375 0 -2.328125 0.859375q-0.984375 0.859375 -0.984375 3.25l0 6.796875l-2.109375 0zm23.296875 0l-4.5625 -17.1875l2.328125 0l2.609375 11.265625q0.421875 1.765625 0.734375 3.515625q0.65625 -2.75 0.765625 -3.171875l3.28125 -11.609375l2.734375 0l2.46875 8.703125q0.921875 3.234375 1.328125 6.078125q0.328125 -1.625 0.859375 -3.734375l2.6875 -11.046875l2.296875 0l-4.71875 17.1875l-2.1875 0l-3.625 -13.09375q-0.453125 -1.640625 -0.53125 -2.015625q-0.28125 1.1875 -0.515625 2.015625l-3.640625 13.09375l-2.3125 0zm27.496094 -1.53125q-1.171875 0.984375 -2.265625 1.40625q-1.078125 0.40625 -2.3125 0.40625q-2.046875 0 -3.15625 -1.0q-1.09375 -1.0 -1.09375 -2.5625q0 -0.921875 0.40625 -1.671875q0.421875 -0.75 1.09375 -1.203125q0.671875 -0.46875 1.515625 -0.703125q0.625 -0.15625 1.875 -0.3125q2.5625 -0.3125 3.765625 -0.734375q0.015625 -0.421875 0.015625 -0.546875q0 -1.28125 -0.609375 -1.8125q-0.796875 -0.71875 -2.390625 -0.71875q-1.5 0 -2.203125 0.53125q-0.703125 0.515625 -1.046875 1.84375l-2.0625 -0.28125q0.28125 -1.328125 0.921875 -2.140625q0.640625 -0.8125 1.859375 -1.25q1.21875 -0.453125 2.828125 -0.453125q1.59375 0 2.59375 0.375q1.0 0.375 1.46875 0.953125q0.46875 0.5625 0.65625 1.4375q0.09375 0.53125 0.09375 1.9375l0 2.8125q0 2.9375 0.140625 3.71875q0.140625 0.78125 0.53125 1.5l-2.203125 0q-0.328125 -0.65625 -0.421875 -1.53125zm-0.171875 -4.71875q-1.15625 0.46875 -3.453125 0.796875q-1.296875 0.1875 -1.84375 0.421875q-0.53125 0.234375 -0.828125 0.6875q-0.28125 0.453125 -0.28125 1.0q0 0.84375 0.625 1.40625q0.640625 0.5625 1.875 0.5625q1.21875 0 2.171875 -0.53125q0.953125 -0.53125 1.390625 -1.453125q0.34375 -0.71875 0.34375 -2.109375l0 -0.78125zm10.003906 4.359375l0.3125 1.859375q-0.890625 0.203125 -1.59375 0.203125q-1.15625 0 -1.796875 -0.359375q-0.625 -0.375 -0.890625 -0.96875q-0.25 -0.59375 -0.25 -2.484375l0 -7.171875l-1.546875 0l0 -1.640625l1.546875 0l0 -3.078125l2.09375 -1.265625l0 4.34375l2.125 0l0 1.640625l-2.125 0l0 7.28125q0 0.90625 0.109375 1.171875q0.125 0.25 0.375 0.40625q0.25 0.140625 0.71875 0.140625q0.34375 0 0.921875 -0.078125zm10.589844 -2.125l2.171875 0.28125q-0.515625 1.90625 -1.90625 2.96875q-1.390625 1.046875 -3.5625 1.046875q-2.734375 0 -4.34375 -1.671875q-1.59375 -1.6875 -1.59375 -4.734375q0 -3.140625 1.609375 -4.875q1.625 -1.734375 4.203125 -1.734375q2.5 0 4.078125 1.703125q1.59375 1.703125 1.59375 4.78125q0 0.1875 -0.015625 0.5625l-9.28125 0q0.109375 2.046875 1.15625 3.140625q1.046875 1.09375 2.609375 1.09375q1.15625 0 1.96875 -0.609375q0.828125 -0.609375 1.3125 -1.953125zm-6.9375 -3.40625l6.953125 0q-0.140625 -1.5625 -0.796875 -2.359375q-1.0 -1.21875 -2.609375 -1.21875q-1.453125 0 -2.453125 0.984375q-0.984375 0.96875 -1.09375 2.59375zm11.738281 7.421875l0 -12.453125l1.890625 0l0 1.890625q0.734375 -1.328125 1.34375 -1.75q0.625 -0.421875 1.359375 -0.421875q1.0625 0 2.171875 0.6875l-0.734375 1.953125q-0.765625 -0.453125 -1.546875 -0.453125q-0.6875 0 -1.25 0.421875q-0.546875 0.40625 -0.78125 1.140625q-0.34375 1.125 -0.34375 2.46875l0 6.515625l-2.109375 0z" fill-rule="nonzero"></path><path fill="#000000" fill-opacity="0.0" d="m473.1109 213.81618l-0.31497192 39.62204" fill-rule="evenodd"></path><path stroke="#595959" stroke-width="1.0" stroke-linejoin="round" stroke-linecap="butt" d="m473.1109 213.81618l-0.26727295 33.622223" fill-rule="evenodd"></path><path fill="#595959" stroke="#595959" stroke-width="1.0" stroke-linecap="butt" d="m471.19196 247.42528l1.6156006 4.5510864l1.6877441 -4.524826z" fill-rule="evenodd"></path></g></svg>

